<?xml version="1.0" standalone="no"?>
<!DOCTYPE svg PUBLIC "-//W3C//DTD SVG 20010904//EN"
 "http://www.w3.org/TR/2001/REC-SVG-20010904/DTD/svg10.dtd">
<svg version="1.0" xmlns="http://www.w3.org/2000/svg"
 width="512.000000pt" height="512.000000pt" viewBox="0 0 512.000000 512.000000"
 preserveAspectRatio="xMidYMid meet">

<g transform="translate(0.000000,512.000000) scale(0.100000,-0.100000)"
fill="#000000" stroke="none">
<path d="M2790 5105 c-25 -8 -64 -30 -86 -49 l-41 -35 -74 24 c-110 35 -226
49 -353 42 -554 -29 -936 -375 -1075 -977 -55 -238 -51 -516 10 -643 l18 -39
-34 -30 c-19 -16 -49 -59 -67 -96 -28 -57 -33 -78 -36 -162 -2 -53 1 -122 8
-153 28 -136 132 -268 259 -329 l68 -33 47 -106 c61 -138 161 -313 240 -419
35 -47 63 -86 63 -87 -1 0 -234 -51 -517 -113 -283 -61 -540 -121 -570 -134
-163 -65 -316 -230 -369 -396 -17 -54 -171 -958 -171 -1005 0 -58 26 -141 62
-197 48 -77 137 -137 234 -158 62 -14 4224 6 4299 21 120 23 216 97 267 205
52 110 50 132 -46 656 -48 258 -95 492 -106 520 -47 125 -128 228 -242 308
-111 78 -65 66 -1056 268 -106 22 -196 42 -198 45 -3 3 12 30 34 60 88 118
195 317 261 484 32 80 34 82 99 120 92 53 163 127 206 215 89 180 61 416 -61
529 l-44 41 4 91 c2 51 16 146 31 212 24 103 28 143 29 280 1 225 -38 376
-135 525 -175 270 -562 454 -833 397 -38 -8 -73 -13 -77 -10 -14 8 -8 37 17
91 l24 52 -22 -1 c-12 0 -42 -7 -67 -14z m367 -1077 c159 -58 324 -234 434
-461 36 -74 39 -88 39 -164 l0 -83 44 0 c37 0 48 -5 69 -29 51 -61 59 -193 18
-285 -37 -84 -115 -147 -210 -171 -36 -10 -47 -18 -54 -41 -5 -16 -32 -84 -59
-150 -47 -115 -52 -124 -104 -162 -116 -86 -275 -131 -494 -139 l-136 -6 -18
27 c-60 92 -206 88 -265 -8 -25 -40 -28 -114 -6 -156 47 -92 179 -116 245 -45
21 22 29 24 79 19 79 -9 281 12 389 39 51 13 92 20 92 17 0 -15 -77 -109 -149
-183 -350 -361 -763 -355 -1118 17 -147 153 -297 398 -388 635 l-33 85 -59 16
c-107 29 -196 111 -222 205 -6 22 -11 67 -11 100 0 118 34 175 104 175 l41 0
0 168 c0 163 1 168 28 224 70 143 213 209 452 209 155 0 297 -23 509 -81 183
-51 258 -58 346 -36 120 31 210 104 284 230 36 62 39 65 70 59 17 -3 55 -15
83 -25z m388 -2220 c4 -4 -364 -444 -709 -848 l-81 -95 -61 250 -62 250 80 75
80 75 -50 47 -50 47 72 21 c127 39 263 117 371 213 l49 44 179 -37 c98 -21
180 -40 182 -42z m-1598 4 c40 -32 106 -77 147 -101 72 -41 230 -101 266 -101
35 0 29 -16 -17 -55 l-46 -39 81 -75 82 -76 -58 -247 c-31 -137 -59 -248 -62
-247 -7 1 -810 906 -813 916 -2 5 297 78 338 82 6 0 43 -25 82 -57z m2122
-107 c357 -75 383 -85 482 -184 105 -106 110 -119 200 -608 95 -512 99 -543
71 -605 -21 -49 -66 -88 -121 -107 -23 -7 -167 -11 -457 -11 l-424 0 0 235 0
236 -25 24 c-15 15 -36 25 -54 25 -85 0 -91 -19 -91 -300 l0 -230 -917 0
c-505 0 -996 -3 -1090 -7 l-173 -6 0 237 0 238 -29 29 c-31 31 -55 36 -94 18
-43 -19 -47 -46 -47 -290 l0 -230 -442 3 -443 3 -38 24 c-49 30 -85 85 -93
141 -4 33 16 173 75 513 72 415 85 475 112 530 39 76 136 175 208 211 57 29
634 162 652 150 6 -3 269 -297 585 -652 315 -356 588 -654 604 -663 21 -11 40
-15 58 -10 20 5 181 189 596 679 314 370 572 672 576 672 3 0 147 -29 319 -65z"/>
</g>
</svg>
